<svg xmlns="http://www.w3.org/2000/svg" viewBox="0 0 1254 1254" role="img" aria-labelledby="title desc">
<title id="title">OMNI JR Parking — official logo</title>
<desc id="desc">Official OMNI JR Parking logo supplied by the brand owner. Geometry traced directly from the approved source artwork.</desc>
<path d="M594 55L593 56L568 57L567 58L559 58L558 59L530 62L475 74L430 88L377 110L328 136L280 168L234 206L199 241L164 283L132 329L115 358L96 395L79 436L62 490L62 494L57 511L50 548L47 580L46 581L46 592L45 593L45 609L44 610L44 660L45 661L45 676L46 677L46 687L47 688L49 712L57 754L66 789L75 816L89 851L111 893L130 924L147 948L185 993L212 1020L230 1036L271 1068L321 1100L367 1124L418 1145L477 1163L538 1175L569 1178L570 1179L597 1180L598 1181L655 1181L656 1180L683 1179L684 1178L715 1175L771 1164L798 1157L835 1145L882 1126L933 1100L982 1069L1015 1044L1060 1003L1095 964L1126 922L1144 893L1156 871L1170 841L1179 818L1194 770L1207 708L1210 677L1211 676L1211 665L1212 664L1212 641L1213 640L1212 596L1211 595L1210 573L1209 572L1209 565L1208 564L1204 532L1193 484L1178 438L1156 387L1154 385L1140 357L1123 329L1089 281L1051 237L1019 206L980 174L931 141L877 112L830 92L780 76L747 68L715 62L710 62L709 61L679 58L678 57L668 57L667 56L653 56L652 55Z M582 78L649 77L650 78L664 78L665 79L691 81L692 82L698 82L746 91L782 100L805 108L808 108L852 125L899 148L948 178L989 209L1023 240L1059 279L1076 300L1096 328L1122 370L1147 420L1166 471L1179 520L1184 552L1185 553L1187 576L1188 577L1189 603L1190 604L1190 655L1189 656L1187 691L1186 692L1185 705L1179 737L1167 784L1156 816L1146 840L1123 885L1098 924L1068 962L1022 1009L990 1036L952 1063L904 1091L871 1107L847 1117L842 1118L837 1121L791 1136L736 1149L731 1149L706 1154L682 1156L681 1157L652 1158L651 1159L603 1159L602 1158L585 1158L584 1157L563 1156L562 1155L547 1154L546 1153L540 1153L516 1148L511 1148L455 1134L399 1114L350 1091L309 1067L274 1043L256 1029L221 998L182 956L153 918L122 867L113 849L109 837L104 827L87 778L75 728L71 698L70 697L69 680L68 679L67 649L66 648L66 614L67 613L68 584L69 583L71 558L72 557L76 528L82 501L84 497L91 469L105 429L114 408L137 363L168 314L202 270L244 226L280 195L319 167L371 137L373 137L403 122L428 112L470 98L497 91L532 84L560 81L561 80L581 79Z M594 101L593 102L581 102L580 103L570 103L569 104L546 106L487 118L442 132L389 154L342 180L297 211L266 237L231 272L200 309L168 356L146 395L146 397L129 432L125 445L121 453L113 477L104 510L101 528L99 533L95 563L94 564L92 592L91 593L91 607L90 608L91 666L92 667L93 687L94 688L94 695L95 696L98 720L108 764L117 791L117 794L119 797L126 818L145 859L165 893L193 932L229 973L260 1002L290 1026L316 1044L342 1060L391 1085L441 1105L493 1120L551 1131L579 1133L580 1134L592 1134L593 1135L618 1135L619 1136L659 1135L660 1134L673 1134L674 1133L701 1131L702 1130L714 1129L756 1121L809 1106L863 1085L914 1059L956 1032L997 1000L1037 961L1065 928L1086 899L1098 880L1122 834L1135 802L1147 765L1152 742L1154 738L1156 723L1159 712L1161 694L1162 693L1164 667L1165 666L1165 654L1166 653L1166 602L1165 601L1163 568L1162 567L1161 554L1160 553L1157 530L1155 525L1155 520L1142 472L1134 449L1121 418L1096 370L1068 327L1037 288L992 242L946 205L901 176L857 153L806 132L761 118L703 106L669 103L668 102L655 102L654 101Z M590 106L637 105L638 106L657 106L658 107L680 108L681 109L710 112L736 117L785 130L841 151L895 178L936 204L974 233L991 248L1023 280L1044 304L1077 349L1104 395L1123 435L1140 483L1149 517L1154 542L1156 561L1157 562L1157 570L1158 571L1158 579L1159 580L1159 589L1160 590L1161 651L1160 652L1160 666L1159 667L1157 694L1148 742L1143 758L1141 769L1130 802L1114 840L1092 881L1072 911L1038 953L997 994L964 1021L921 1050L873 1076L823 1097L772 1113L768 1113L760 1116L756 1116L727 1123L722 1123L709 1126L702 1126L701 1127L694 1127L693 1128L675 1129L674 1130L595 1131L594 1130L580 1130L579 1129L560 1128L559 1127L538 1125L502 1118L467 1109L448 1102L439 1100L413 1090L360 1065L326 1045L286 1017L255 991L212 947L182 909L155 866L136 828L126 803L117 776L105 728L105 723L100 699L98 675L97 674L96 641L95 640L95 616L96 615L96 596L97 595L98 574L99 573L100 559L101 558L105 530L117 482L135 431L162 376L195 324L226 285L270 240L297 217L343 185L390 159L439 138L483 124L526 114L551 111L552 110L559 110L560 109L567 109L568 108L589 107Z M911 926L911 931L1000 931L1000 926Z M264 927L265 931L354 931L354 926L265 926Z M750 909L750 947L756 947L756 920L757 919L780 947L784 948L785 947L785 909L780 909L780 935L779 936L771 928L756 909Z M699 909L699 947L704 947L704 942L705 941L704 911L705 910L704 909Z M622 909L622 947L627 947L627 940L628 939L627 937L635 929L650 947L657 947L640 927L640 925L656 909L649 909L628 929L627 928L628 926L627 909Z M546 909L546 947L552 947L552 934L553 933L562 933L573 947L580 947L569 933L576 929L578 926L579 918L577 914L570 909Z M552 915L553 914L568 914L572 917L573 923L568 928L553 928L552 927Z M482 909L464 947L470 947L475 938L495 938L500 947L506 947L488 909Z M485 916L493 932L492 933L478 933L477 932Z M425 911L420 909L400 909L399 910L399 947L405 947L405 935L406 934L423 933L429 928L430 926L430 917Z M405 915L406 914L419 914L421 915L425 920L424 925L419 929L406 929L405 928Z M842 909L838 911L830 920L829 934L835 943L845 948L854 948L864 944L866 942L866 927L863 926L862 927L850 927L850 931L860 931L861 932L861 939L857 942L846 943L843 942L837 937L834 930L834 927L837 919L840 916L846 913L853 913L861 917L865 913L854 908Z M981 789L979 790L979 849L1001 849L1001 809L991 790Z M973 732L986 754L1049 754L1055 759L1055 784L1052 788L1050 789L1008 790L1020 808L1053 849L1082 849L1049 811L1050 809L1060 809L1066 807L1074 800L1078 789L1078 754L1077 749L1072 740L1067 736L1056 732Z M941 732L917 732L917 821L916 824L912 827L902 827L901 828L871 828L867 827L865 825L863 815L842 823L843 835L846 841L851 846L858 849L921 849L929 846L934 842L939 834L941 826Z M742 732L742 849L766 849L766 733L765 732Z M560 732L560 849L581 849L581 770L582 769L665 849L685 849L685 732L663 732L662 733L662 810L661 811L578 732Z M361 732L361 849L383 849L383 773L384 772L431 833L437 833L484 772L485 773L485 849L508 849L508 732L487 732L435 800L433 799L389 741L381 732Z M196 739L193 742L188 751L186 760L186 821L188 830L192 838L198 844L206 848L216 850L281 850L295 846L304 838L308 831L310 824L310 758L306 746L299 738L290 733L280 732L279 731L217 731L204 734Z M211 758L217 754L279 754L283 756L286 759L287 762L287 819L286 822L280 827L272 827L271 828L264 828L263 827L223 827L221 828L214 826L209 819L209 763Z M1113 680L1101 680L1100 679L1062 677L1061 676L1046 676L1045 675L857 680L962 680L963 681L1112 681Z M155 680L156 681L179 681L180 680L187 680L188 681L754 680L692 677L691 676L671 676L670 675L598 673L597 672L286 672L285 673L225 675L224 676L208 676L207 677L193 677L192 678L181 678L180 679Z M590 471L591 476L593 478L614 482L632 483L637 485L622 497L601 517L591 529L589 534L588 544L587 545L587 595L588 596L588 615L589 616L590 643L592 646L611 648L612 649L620 649L621 650L660 653L665 652L677 646L705 629L715 626L905 626L916 629L947 648L959 653L1009 649L1017 647L1024 647L1030 645L1031 622L1032 621L1032 604L1033 603L1033 574L1034 573L1033 546L1032 545L1031 534L1025 524L1005 504L981 485L987 483L1005 482L1021 479L1025 477L1027 472L1023 466L1015 462L999 459L984 459L981 462L980 465L981 478L979 480L976 480L940 432L928 419L918 413L900 411L899 410L879 409L878 408L850 407L849 406L820 406L819 405L766 406L765 407L750 407L749 408L738 408L737 409L727 409L726 410L701 412L691 417L679 429L641 480L638 480L634 478L636 473L636 463L633 459L618 459L617 460L610 460L601 462L595 465Z M1020 637L1016 640L994 641L993 642L974 642L938 622L933 621L906 622L905 621L907 619L919 614L922 614L951 604L1000 591L1006 591L1012 596L1020 629Z M600 635L607 602L609 596L614 591L622 591L653 599L707 616L716 621L715 622L698 622L697 621L683 622L647 642L630 642L629 641L606 640L603 639Z M686 581L719 554L725 554L726 553L897 553L902 554L933 579L935 581L935 583L910 613L901 621L881 621L880 622L748 622L747 621L720 621L718 620L686 583Z M1018 528L1018 546L1016 554L1012 560L1001 565L975 569L974 570L949 573L938 568L913 551L914 549L935 542L938 542L961 534L964 534L971 531L1011 520L1014 520L1016 522Z M1009 528L1004 530L1001 549L997 553L965 561L956 562L948 564L948 565L955 566L956 565L984 561L1003 556L1007 552L1008 549Z M602 530L605 522L607 520L610 520L650 532L653 532L660 535L663 535L692 545L695 545L704 548L708 551L689 564L673 573L666 573L659 571L641 569L621 564L617 564L610 561L607 558L604 552L603 542L602 541Z M611 528L611 541L613 550L616 555L623 558L653 564L658 564L665 566L673 565L673 564L642 558L622 552L620 550L618 544L616 530Z M650 482L677 442L685 432L697 421L717 419L718 418L756 416L757 415L837 414L838 415L860 415L861 416L875 416L876 417L907 419L908 420L919 421L923 423L946 451L967 483L966 484L928 484L927 483L891 483L890 482L736 482L735 483L696 483L695 484L651 484Z M291 266L284 272L278 284L278 537L280 543L288 553L295 557L302 559L411 559L412 560L411 561L412 562L412 653L411 654L412 655L408 657L380 657L379 658L360 658L359 659L321 661L320 662L309 663L309 666L310 667L539 667L540 663L536 662L504 660L503 659L489 659L488 658L435 657L433 655L433 560L434 559L539 559L547 557L554 553L560 546L564 536L564 285L560 275L551 266L540 262L302 262Z M300 278L303 277L539 277L542 278L549 286L549 534L548 537L542 543L539 544L303 544L300 543L294 537L293 534L293 286Z M462 314L440 309L347 309L346 310L346 515L347 516L391 516L391 454L392 453L439 453L462 448L473 443L486 434L494 426L502 414L507 402L509 394L509 386L510 385L509 368L506 357L500 345L488 330L476 321Z M391 350L392 349L437 349L450 354L460 364L463 369L465 376L465 387L460 399L451 408L439 413L434 414L392 414L391 413Z" fill="#111" fill-rule="evenodd"/>
</svg>