<svg xmlns="http://www.w3.org/2000/svg" aria-hidden="true">
  <symbol id="worker" viewBox="0 0 64 64">
    <circle cx="24" cy="18" r="8" fill="none" stroke="currentColor" stroke-width="3.5"/>
    <path d="M10 49c1.5-12 7-18 14-18s12.5 6 14 18" fill="none" stroke="currentColor" stroke-width="3.5" stroke-linecap="round"/>
    <rect x="34" y="29" width="20" height="17" rx="4" fill="none" stroke="currentColor" stroke-width="3.5"/>
    <path d="M40 29v-3.5a4 4 0 0 1 4-4h0a4 4 0 0 1 4 4V29M34 36h20" fill="none" stroke="currentColor" stroke-width="3.5" stroke-linecap="round"/>
  </symbol>
  <symbol id="parking" viewBox="0 0 64 64">
    <rect x="8" y="8" width="48" height="48" rx="14" fill="none" stroke="currentColor" stroke-width="3.5"/>
    <path d="M25 46V18h10c8 0 13 4.5 13 11s-5 11-13 11H25" fill="none" stroke="currentColor" stroke-width="4" stroke-linecap="round" stroke-linejoin="round"/>
  </symbol>
  <symbol id="restaurant" viewBox="0 0 64 64">
    <circle cx="34" cy="33" r="17" fill="none" stroke="currentColor" stroke-width="3.5"/>
    <path d="M34 21a12 12 0 1 1-12 12" fill="none" stroke="currentColor" stroke-width="3.5" stroke-linecap="round"/>
    <path d="M12 10v17M7 10v9c0 5 10 5 10 0v-9M12 27v27M52 10v44M46 10c0 12 6 15 6 15" fill="none" stroke="currentColor" stroke-width="3.5" stroke-linecap="round"/>
  </symbol>
  <symbol id="automotive" viewBox="0 0 64 64">
    <path d="M12 38l4-13c1-4 4-6 8-6h16c4 0 7 2 8 6l4 13" fill="none" stroke="currentColor" stroke-width="3.5" stroke-linejoin="round"/>
    <path d="M9 39c0-4 3-7 7-7h32c4 0 7 3 7 7v8c0 3-2 5-5 5H14c-3 0-5-2-5-5z" fill="none" stroke="currentColor" stroke-width="3.5"/>
    <circle cx="18" cy="43" r="3" fill="currentColor"/><circle cx="46" cy="43" r="3" fill="currentColor"/>
    <path d="M14 28h36" fill="none" stroke="currentColor" stroke-width="3.5" stroke-linecap="round"/>
  </symbol>
  <symbol id="artist" viewBox="0 0 64 64">
    <rect x="24" y="8" width="16" height="31" rx="8" fill="none" stroke="currentColor" stroke-width="3.5"/>
    <path d="M17 31c0 9 6 15 15 15s15-6 15-15M32 46v10M23 56h18" fill="none" stroke="currentColor" stroke-width="3.5" stroke-linecap="round"/>
    <path d="M49 10l1.5 4.5L55 16l-4.5 1.5L49 22l-1.5-4.5L43 16l4.5-1.5z" fill="currentColor"/>
  </symbol>
  <symbol id="payments" viewBox="0 0 64 64">
    <rect x="7" y="14" width="50" height="36" rx="8" fill="none" stroke="currentColor" stroke-width="3.5"/>
    <path d="M7 25h50M15 40h15" fill="none" stroke="currentColor" stroke-width="3.5" stroke-linecap="round"/>
    <circle cx="47" cy="39" r="5" fill="none" stroke="currentColor" stroke-width="3.5"/>
  </symbol>
  <symbol id="beauty" viewBox="0 0 64 64">
    <path d="M32 7c3 10 8 15 18 18-10 3-15 8-18 18-3-10-8-15-18-18 10-3 15-8 18-18z" fill="none" stroke="currentColor" stroke-width="3.5" stroke-linejoin="round"/>
    <path d="M49 38c1.5 5 4 7.5 9 9-5 1.5-7.5 4-9 9-1.5-5-4-7.5-9-9 5-1.5 7.5-4 9-9zM14 40c1 3.5 3 5.5 6.5 6.5C17 47.5 15 49.5 14 53c-1-3.5-3-5.5-6.5-6.5C11 45.5 13 43.5 14 40z" fill="currentColor"/>
  </symbol>
  <symbol id="core" viewBox="0 0 64 64">
    <path d="M32 6l6.7 16.4L56 24l-13.2 11.2L47 52l-15-8.8L17 52l4.2-16.8L8 24l17.3-1.6z" fill="none" stroke="currentColor" stroke-width="3.5" stroke-linejoin="round"/>
    <path d="M25 25h9c5 0 8 2 8 6 0 2.5-1.5 4.3-4 5.2 3.4.8 5 2.8 5 5.8 0 4.5-3.5 7-9 7h-9z" fill="none" stroke="currentColor" stroke-width="3.2" stroke-linejoin="round"/>
  </symbol>
</svg>